<?xml version="1.0" encoding="utf-8"?>
<!-- Uploaded to: SVG Repo, www.svgrepo.com, Generator: SVG Repo Mixer Tools -->
<svg version="1.1" id="Uploaded to svgrepo.com" xmlns="http://www.w3.org/2000/svg" xmlns:xlink="http://www.w3.org/1999/xlink" 
	 width="800px" height="800px" viewBox="0 0 32 32" xml:space="preserve">
<style type="text/css">
	.avocado_een{fill:#231F20;}
	.avocado_twintig{fill:#EAD13F;}
	.avocado_negentien{fill:#E0A838;}
	.st0{fill:#A3AEB5;}
	.st1{fill:#FFFAEE;}
	.st2{fill:#AF9480;}
	.st3{fill:#DBD2C1;}
	.st4{fill:#CC4121;}
	.st5{fill:#788287;}
	.st6{fill:#C3CC6A;}
	.st7{fill:#D1712A;}
	.st8{fill:#716558;}
	.st9{fill:#6F9B45;}
	.st10{fill:#0E608E;}
	.st11{fill:#E598A3;}
	.st12{fill:#3D3935;}
	.st13{fill:#248EBC;}
	.st14{fill:#BF63C1;}
</style>
<g>
	<g>
		<g>
			<path class="avocado_twintig" d="M13.5,28.793V13.5H13c-3.032,0-5.5-2.468-5.5-5.5V6c0-3.032,2.468-5.5,5.5-5.5h6
				c3.032,0,5.5,2.468,5.5,5.5v2c0,3.032-2.468,5.5-5.5,5.5h-0.5v5.707L19.293,20l-2,2l2,2l-2,2l2.083,2.083l-3.368,3.218
				L13.5,28.793z M16,2.5c-0.827,0-1.5,0.673-1.5,1.5s0.673,1.5,1.5,1.5s1.5-0.673,1.5-1.5S16.827,2.5,16,2.5z"/>
		</g>
	</g>
	<g>
		<polygon class="avocado_negentien" points="16,13 16,31.301 19.376,28.091 17.285,26 19.285,24 17.285,22 19.285,20 
			18.5,19.201 18.5,13 		"/>
	</g>
	<path class="avocado_een" d="M19,0h-6C9.686,0,7,2.686,7,6v2c0,3.314,2.686,6,6,6h0v15l3,3l4.091-3.909L18,26l2-2l-2-2l2-2
		l-1-1v-5c3.314,0,6-2.686,6-6V6C25,2.686,22.314,0,19,0z M24,8c0,2.757-2.243,5-5,5h-1v6.414L18.586,20l-2,2l2,2l-2,2l2.075,2.075
		l-2.644,2.527L14,28.586L14,13h-1c-2.757,0-5-2.243-5-5V6c0-2.757,2.243-5,5-5h6c2.757,0,5,2.243,5,5V8z M16,2
		c-1.103,0-2,0.897-2,2c0,1.103,0.897,2,2,2c1.103,0,2-0.897,2-2C18,2.897,17.103,2,16,2z M16,5c-0.552,0-1-0.448-1-1
		c0-0.552,0.448-1,1-1s1,0.448,1,1C17,4.552,16.552,5,16,5z"/>
</g>
</svg>