<!DOCTYPE svg PUBLIC "-//W3C//DTD SVG 1.1//EN" "http://www.w3.org/Graphics/SVG/1.1/DTD/svg11.dtd">
<!-- Uploaded to: SVG Repo, www.svgrepo.com, Transformed by: SVG Repo Mixer Tools -->
<svg width="800px" height="800px" viewBox="0 0 64 64" xmlns="http://www.w3.org/2000/svg" fill="#000000">
<g id="SVGRepo_bgCarrier" stroke-width="0"/>
<g id="SVGRepo_tracerCarrier" stroke-linecap="round" stroke-linejoin="round"/>
<g id="SVGRepo_iconCarrier"> <g id="a"/> <g id="b"/> <g id="c"/> <g id="d"/> <g id="e"/> <g id="f"> <path d="M12.07,5c-1.13,0-2.04,.91-2.04,2.04v14.72l20.63,3.94,23.31-3.94V7.04c0-1.13-.91-2.04-2.04-2.04H12.07Z" fill="#ffffff" fill-rule="evenodd"/> <path d="M53.97,21.75H10.03V56.96c0,1.13,.91,2.04,2.04,2.04H51.94c1.13,0,2.04-.91,2.04-2.04V21.75Z" fill="#f0f3f5" fill-rule="evenodd"/> <rect fill="#9fa9b6" height="5.96" width="7.86" x="40.09" y="47.02"/> <rect fill="#9fa9b6" height="5.96" width="7.86" x="28.07" y="47.02"/> <rect fill="#9fa9b6" height="5.96" width="7.86" x="16.05" y="47.02"/> <rect fill="#9fa9b6" height="5.96" width="7.86" x="40.09" y="36.91"/> <rect fill="#9fa9b6" height="5.96" width="7.86" x="28.07" y="36.91"/> <rect fill="#9fa9b6" height="5.96" width="7.86" x="16.05" y="36.91"/> <rect fill="#9fa9b6" height="5.96" width="7.86" x="40.09" y="26.79"/> <rect fill="#9fa9b6" height="5.96" width="7.86" x="28.07" y="26.79"/> <rect fill="#9fa9b6" height="5.96" width="7.86" x="16.05" y="26.79"/> <path d="M47.76,5c1.13,0,2.04,.91,2.04,2.04v15.42l4.17-.71V7.04c0-1.13-.91-2.04-2.04-2.04h-4.17Z" fill="#e6e6e6" fill-rule="evenodd"/> <path d="M49.8,21.75V56.96c0,1.13-.91,2.04-2.04,2.04h4.17c1.13,0,2.04-.91,2.04-2.04V21.75h-4.17Z" fill="#e4ecf0" fill-rule="evenodd"/> <path d="M45.72,52.97h2.22v-5.96h-2.22v5.96Zm-12.02,0h2.22v-5.96h-2.22v5.96Zm-12.02,0h2.22v-5.96h-2.22v5.96Zm24.03-10.11h2.22v-5.96h-2.22v5.96Zm-12.02,0h2.22v-5.96h-2.22v5.96Zm-12.02,0h2.22v-5.96h-2.22v5.96Zm24.03-10.11h2.22v-5.96h-2.22v5.96Zm-12.02,0h2.22v-5.96h-2.22v5.96Zm-12.02,0h2.22v-5.96h-2.22v5.96Z" fill="#8996a8" fill-rule="evenodd"/> <path d="M9.03,7.04V56.96c0,1.67,1.36,3.04,3.04,3.04H51.93c1.67,0,3.04-1.36,3.04-3.04V7.04c0-1.67-1.36-3.04-3.04-3.04H12.07c-1.67,0-3.04,1.36-3.04,3.04ZM51.93,58H12.07c-.57,0-1.04-.46-1.04-1.04V22.75H52.97V56.96c0,.57-.46,1.04-1.04,1.04ZM12.07,6H51.93c.57,0,1.04,.46,1.04,1.04v13.72H11.03V7.04c0-.57,.47-1.04,1.04-1.04Z"/> <path d="M47.95,46.02h-7.86c-.55,0-1,.45-1,1v5.96c0,.55,.45,1,1,1h7.86c.55,0,1-.45,1-1v-5.96c0-.55-.45-1-1-1Zm-1,5.96h-5.86v-3.96h5.86v3.96Z"/> <path d="M35.93,46.02h-7.86c-.55,0-1,.45-1,1v5.96c0,.55,.45,1,1,1h7.86c.55,0,1-.45,1-1v-5.96c0-.55-.45-1-1-1Zm-1,5.96h-5.86v-3.96h5.86v3.96Z"/> <path d="M23.91,46.02h-7.86c-.55,0-1,.45-1,1v5.96c0,.55,.45,1,1,1h7.86c.55,0,1-.45,1-1v-5.96c0-.55-.45-1-1-1Zm-1,5.96h-5.86v-3.96h5.86v3.96Z"/> <path d="M47.95,35.91h-7.86c-.55,0-1,.45-1,1v5.96c0,.55,.45,1,1,1h7.86c.55,0,1-.45,1-1v-5.96c0-.55-.45-1-1-1Zm-1,5.96h-5.86v-3.96h5.86v3.96Z"/> <path d="M35.93,35.91h-7.86c-.55,0-1,.45-1,1v5.96c0,.55,.45,1,1,1h7.86c.55,0,1-.45,1-1v-5.96c0-.55-.45-1-1-1Zm-1,5.96h-5.86v-3.96h5.86v3.96Z"/> <path d="M23.91,35.91h-7.86c-.55,0-1,.45-1,1v5.96c0,.55,.45,1,1,1h7.86c.55,0,1-.45,1-1v-5.96c0-.55-.45-1-1-1Zm-1,5.96h-5.86v-3.96h5.86v3.96Z"/> <path d="M47.95,25.79h-7.86c-.55,0-1,.45-1,1v5.96c0,.55,.45,1,1,1h7.86c.55,0,1-.45,1-1v-5.96c0-.55-.45-1-1-1Zm-1,5.96h-5.86v-3.96h5.86v3.96Z"/> <path d="M35.93,25.79h-7.86c-.55,0-1,.45-1,1v5.96c0,.55,.45,1,1,1h7.86c.55,0,1-.45,1-1v-5.96c0-.55-.45-1-1-1Zm-1,5.96h-5.86v-3.96h5.86v3.96Z"/> <path d="M23.91,25.79h-7.86c-.55,0-1,.45-1,1v5.96c0,.55,.45,1,1,1h7.86c.55,0,1-.45,1-1v-5.96c0-.55-.45-1-1-1Zm-1,5.96h-5.86v-3.96h5.86v3.96Z"/> <path d="M18.09,16h2.96c1.43,0,2.6-1.17,2.6-2.6,0-.92-.47-1.72-1.19-2.19,.13-.31,.21-.66,.21-1.02,0-1.44-1.17-2.6-2.6-2.6h-1.98c-.55,0-1,.45-1,1v6.41c0,.55,.45,1,1,1Zm1-6.41h.98c.34,0,.6,.26,.6,.6s-.26,.6-.6,.6h-.98v-1.21Zm0,3.21h1.96c.34,0,.6,.26,.6,.6s-.26,.6-.6,.6h-1.96v-1.21Z"/> <path d="M25.59,15.45c.55,0,1-.45,1-1v-5.32c0-.55-.45-1-1-1s-1,.45-1,1v5.32c0,.55,.45,1,1,1Z"/> <path d="M28.54,15.45c.55,0,1-.45,1-1v-2.47l2.47,3.09c.19,.24,.48,.38,.78,.38,.11,0,.22-.02,.33-.06,.4-.14,.67-.52,.67-.94v-5.32c0-.55-.45-1-1-1s-1,.45-1,1v2.47l-2.47-3.09c-.27-.33-.71-.46-1.11-.32-.4,.14-.67,.52-.67,.94v5.32c0,.55,.45,1,1,1Z"/> <path d="M37.6,15.73c.77,0,1.48-.3,2.02-.83,.54-.54,.84-1.26,.84-2.02v-.94c0-.55-.45-1-1-1h-.92c-.55,0-1,.45-1,1,0,.52,.4,.95,.92,1-.01,.21-.1,.4-.25,.55-.16,.16-.38,.25-.61,.25-.48,0-.86-.38-.86-.86v-2.15c0-.47,.38-.86,.86-.86,.23,0,.45,.09,.61,.25,.39,.39,1.02,.39,1.41,0s.39-1.02,0-1.41c-.54-.54-1.26-.84-2.02-.84-1.57,0-2.86,1.28-2.86,2.86v2.15c0,1.57,1.28,2.86,2.86,2.86Z"/> <path d="M44.16,15.87c1.52,0,2.75-1.24,2.75-2.76v-2.63c0-1.52-1.24-2.75-2.75-2.75s-2.76,1.24-2.76,2.75v2.63c0,1.52,1.24,2.76,2.76,2.76Zm-.76-5.39c0-.42,.33-.75,.76-.75s.75,.34,.75,.75v2.63c0,.42-.34,.76-.75,.76s-.76-.33-.76-.76v-2.63Z"/> <path d="M25.17,19.24h13.66c.55,0,1-.45,1-1s-.45-1-1-1h-13.66c-.55,0-1,.45-1,1s.45,1,1,1Z"/> </g> <g id="g"/> <g id="h"/> <g id="i"/> <g id="j"/> <g id="k"/> <g id="l"/> <g id="m"/> <g id="n"/> <g id="o"/> <g id="p"/> <g id="q"/> <g id="r"/> <g id="s"/> <g id="t"/> <g id="u"/> <g id="v"/> <g id="w"/> <g id="x"/> <g id="y"/> <g id="a`"/> <g id="aa"/> <g id="ab"/> <g id="ac"/> <g id="ad"/> <g id="ae"/> <g id="af"/> <g id="ag"/> <g id="ah"/> <g id="ai"/> <g id="aj"/> <g id="ak"/> <g id="al"/> <g id="am"/> <g id="an"/> <g id="ao"/> <g id="ap"/> <g id="aq"/> <g id="ar"/> <g id="as"/> <g id="at"/> <g id="au"/> <g id="av"/> <g id="aw"/> <g id="ax"/> </g>
</svg>